<?xml version="1.0" encoding="UTF-8"?>
<svg id="Layer_2" data-name="Layer 2" xmlns="http://www.w3.org/2000/svg" viewBox="0 0 90.79 18.52">
  <defs>
    <style>
      .cls-1 {
        fill: none;
        stroke: #ff7a00;
        stroke-miterlimit: 10;
        stroke-width: .5px;
      }
    </style>
  </defs>
  <g id="Layer_1-2" data-name="Layer 1">
    <g>
      <g>
        <path class="cls-1" d="M17.12,2.51l-5.69,8.1s0,.02.02.02h5.24v5.38H.51L6.75,7.89v-.02H1.03V2.51h16.09Z"/>
        <g>
          <path class="cls-1" d="M48.14,2.51h6.93v13.5h-8.33l-2.27-6.48s0-.02,0-.02h-.02s0,0,0,.02v6.48h-6.93V2.51h8.06l2.54,7.47h.03s0,0,0-.02V2.51Z"/>
          <path class="cls-1" d="M70.92,7.05h-7.85v1.03h7.58v2.54h-7.56s-.02,0-.02,0v1.04h7.96v4.36h-15.25V2.51h15.14v4.54Z"/>
          <path class="cls-1" d="M81.11,7.88c1.8,0,3.31.08,4.52.23,1.21.16,2.18.4,2.9.73s1.24.75,1.55,1.26c.31.51.47,1.11.47,1.81,0,.76-.24,1.43-.73,2.01-.49.58-1.16,1.07-2.03,1.46-.87.39-1.88.68-3.02.88-1.15.2-2.38.3-3.7.3-1.46,0-2.8-.11-4-.32s-2.22-.55-3.06-1c-.84-.45-1.47-1.03-1.88-1.74s-.58-1.55-.5-2.54l7.69-.52c-.1.36-.07.66.08.9.15.24.39.42.71.54.32.12.68.18,1.08.18.24,0,.46-.02.66-.05.2-.04.38-.09.53-.16.16-.07.28-.17.36-.28.08-.11.13-.24.13-.39,0-.29-.15-.47-.44-.56s-.72-.13-1.29-.13h-.45c-1.78,0-3.25-.09-4.43-.28-1.18-.19-2.11-.45-2.79-.78-.68-.34-1.17-.73-1.46-1.2-.29-.46-.43-.98-.43-1.56,0-.61.16-1.17.49-1.67s.78-.94,1.38-1.31c.59-.38,1.29-.69,2.09-.95s1.67-.44,2.63-.58c.95-.13,1.95-.2,3-.2,1.48,0,2.8.13,3.97.4,1.17.26,2.15.64,2.95,1.13s1.37,1.08,1.72,1.76c.35.68.43,1.45.25,2.3l-7.43.34c.13-.35.13-.63-.02-.85-.14-.22-.37-.38-.68-.49-.31-.1-.65-.15-1.03-.15-.24,0-.46.02-.65.06-.19.04-.36.1-.5.18-.14.08-.25.17-.32.28-.08.11-.12.22-.12.34,0,.14.05.26.14.35.1.09.24.15.44.19.2.04.46.05.78.05h.45Z"/>
        </g>
      </g>
      <g>
        <path class="cls-1" d="M33.43,6.33c-.94-.55-2.03-.86-3.2-.86s-2.25.31-3.2.86c-1.91,1.11-3.2,3.18-3.2,5.55,0,.11,0,.21.01.32-1.92-1.1-3.2-3.17-3.2-5.55,0-.11,0-.22.01-.33.17-3.38,2.96-6.07,6.39-6.07s6.23,2.69,6.39,6.08Z"/>
        <path class="cls-1" d="M30.22,12.2c-.11,2.23-1.36,4.16-3.19,5.22-.94.55-2.04.86-3.2.86-3.54,0-6.4-2.87-6.4-6.4,0-2.38,1.29-4.45,3.22-5.56,0,.11-.01.22-.01.33,0,2.37,1.29,4.44,3.2,5.55.94.54,2.03.85,3.19.85s2.25-.31,3.18-.85Z"/>
        <path class="cls-1" d="M36.63,11.88c0,3.53-2.86,6.4-6.4,6.4-1.16,0-2.25-.31-3.2-.86,1.82-1.05,3.08-2.99,3.19-5.22.01-.1.01-.21.01-.32,0-2.37-1.29-4.44-3.2-5.55.94-.55,2.04-.86,3.2-.86s2.26.31,3.2.86c1.92,1.11,3.2,3.18,3.2,5.55Z"/>
      </g>
    </g>
  </g>
</svg>